<svg xmlns="http://www.w3.org/2000/svg" xmlns:xlink="http://www.w3.org/1999/xlink" width="200" zoomAndPan="magnify" viewBox="0 0 150 30.000001" height="40" preserveAspectRatio="xMidYMid meet" version="1.0"><defs><g/><clipPath id="ed88529a81"><path d="M 16.96875 1 L 35 1 L 35 27.84375 L 16.96875 27.84375 Z M 16.96875 1 " clip-rule="nonzero"/></clipPath><clipPath id="8ff951aa94"><path d="M 16.96875 1 L 35 1 L 35 22 L 16.96875 22 Z M 16.96875 1 " clip-rule="nonzero"/></clipPath><clipPath id="df6e10591e"><path d="M 28 1 L 46 1 L 46 27.84375 L 28 27.84375 Z M 28 1 " clip-rule="nonzero"/></clipPath><clipPath id="af55e4d38a"><path d="M 28 1 L 46 1 L 46 22 L 28 22 Z M 28 1 " clip-rule="nonzero"/></clipPath></defs><g clip-path="url(#ed88529a81)"><path fill="#72ffff" d="M 23.875 2.328125 L 33.207031 11.621094 C 33.394531 11.808594 33.5625 12.011719 33.707031 12.234375 C 33.855469 12.453125 33.980469 12.683594 34.082031 12.929688 C 34.183594 13.171875 34.261719 13.425781 34.3125 13.683594 C 34.363281 13.945312 34.390625 14.207031 34.390625 14.472656 C 34.390625 14.734375 34.363281 14.996094 34.3125 15.257812 C 34.261719 15.515625 34.183594 15.769531 34.082031 16.011719 C 33.980469 16.257812 33.855469 16.488281 33.707031 16.710938 C 33.5625 16.929688 33.394531 17.132812 33.207031 17.320312 L 23.875 26.613281 C 21.324219 29.152344 16.964844 27.355469 16.96875 23.761719 L 16.96875 5.175781 C 16.964844 1.589844 21.324219 -0.210938 23.875 2.328125 Z M 23.875 2.328125 " fill-opacity="1" fill-rule="nonzero"/></g><g clip-path="url(#8ff951aa94)"><path fill="#00d7ff" d="M 23.875 2.328125 C 21.339844 -0.195312 17.03125 1.566406 16.96875 5.113281 C 16.96875 5.113281 31.652344 18.953125 29.320312 21.207031 L 33.214844 17.328125 C 33.402344 17.140625 33.570312 16.9375 33.714844 16.71875 C 33.863281 16.5 33.988281 16.265625 34.089844 16.019531 C 34.191406 15.777344 34.269531 15.523438 34.320312 15.265625 C 34.371094 15.007812 34.398438 14.742188 34.398438 14.480469 C 34.398438 14.214844 34.371094 13.953125 34.320312 13.695312 C 34.269531 13.433594 34.191406 13.183594 34.089844 12.9375 C 33.988281 12.691406 33.863281 12.460938 33.714844 12.242188 C 33.570312 12.019531 33.402344 11.816406 33.214844 11.628906 Z M 23.875 2.328125 " fill-opacity="1" fill-rule="nonzero"/></g><path fill="#590696" d="M 46 3.644531 C 46 3.996094 45.933594 4.332031 45.796875 4.652344 C 45.664062 4.976562 45.472656 5.261719 45.226562 5.507812 C 44.976562 5.753906 44.691406 5.945312 44.367188 6.078125 C 44.042969 6.210938 43.707031 6.277344 43.355469 6.277344 C 43.003906 6.277344 42.667969 6.210938 42.34375 6.078125 C 42.019531 5.945312 41.734375 5.753906 41.488281 5.507812 C 41.238281 5.261719 41.046875 4.976562 40.914062 4.652344 C 40.777344 4.332031 40.710938 3.996094 40.710938 3.644531 C 40.710938 3.296875 40.777344 2.960938 40.914062 2.636719 C 41.046875 2.316406 41.238281 2.03125 41.488281 1.785156 C 41.734375 1.535156 42.019531 1.347656 42.34375 1.210938 C 42.667969 1.078125 43.003906 1.011719 43.355469 1.011719 C 43.707031 1.011719 44.042969 1.078125 44.367188 1.210938 C 44.691406 1.347656 44.976562 1.535156 45.226562 1.785156 C 45.472656 2.03125 45.664062 2.316406 45.796875 2.636719 C 45.933594 2.960938 46 3.296875 46 3.644531 Z M 46 3.644531 " fill-opacity="1" fill-rule="nonzero"/><path fill="#590696" d="M 46 3.644531 C 46 3.996094 45.933594 4.332031 45.796875 4.652344 C 45.664062 4.976562 45.472656 5.261719 45.226562 5.507812 C 44.976562 5.753906 44.691406 5.945312 44.367188 6.078125 C 44.042969 6.210938 43.707031 6.277344 43.355469 6.277344 C 43.003906 6.277344 42.667969 6.210938 42.34375 6.078125 C 42.019531 5.945312 41.734375 5.753906 41.488281 5.507812 C 41.238281 5.261719 41.046875 4.976562 40.914062 4.652344 C 40.777344 4.332031 40.710938 3.996094 40.710938 3.644531 C 40.710938 3.296875 40.777344 2.960938 40.914062 2.636719 C 41.046875 2.316406 41.238281 2.03125 41.488281 1.785156 C 41.734375 1.535156 42.019531 1.347656 42.34375 1.210938 C 42.667969 1.078125 43.003906 1.011719 43.355469 1.011719 C 43.707031 1.011719 44.042969 1.078125 44.367188 1.210938 C 44.691406 1.347656 44.976562 1.535156 45.226562 1.785156 C 45.472656 2.03125 45.664062 2.316406 45.796875 2.636719 C 45.933594 2.960938 46 3.296875 46 3.644531 Z M 46 3.644531 " fill-opacity="1" fill-rule="nonzero"/><g clip-path="url(#df6e10591e)"><path fill="#0096ff" d="M 44.8125 11.644531 L 35.480469 2.351562 C 32.976562 -0.148438 26.300781 2.75 28.585938 5.023438 L 35.296875 11.710938 C 35.484375 11.898438 35.652344 12.101562 35.796875 12.320312 C 35.945312 12.539062 36.070312 12.773438 36.171875 13.015625 C 36.273438 13.261719 36.351562 13.511719 36.402344 13.773438 C 36.453125 14.03125 36.480469 14.292969 36.480469 14.558594 C 36.480469 14.824219 36.453125 15.085938 36.402344 15.34375 C 36.351562 15.605469 36.273438 15.855469 36.171875 16.101562 C 36.070312 16.34375 35.945312 16.578125 35.796875 16.796875 C 35.652344 17.015625 35.484375 17.21875 35.296875 17.40625 L 28.589844 24.089844 C 26.542969 26.125 33 29.125 35.480469 26.652344 L 44.8125 17.359375 C 45.003906 17.171875 45.171875 16.96875 45.320312 16.75 C 45.46875 16.527344 45.59375 16.292969 45.695312 16.050781 C 45.800781 15.804688 45.875 15.550781 45.929688 15.292969 C 45.980469 15.03125 46.007812 14.769531 46.007812 14.503906 C 46.007812 14.238281 45.980469 13.972656 45.929688 13.714844 C 45.875 13.453125 45.800781 13.199219 45.695312 12.953125 C 45.59375 12.710938 45.46875 12.476562 45.320312 12.257812 C 45.171875 12.035156 45.003906 11.832031 44.8125 11.644531 Z M 44.8125 11.644531 " fill-opacity="1" fill-rule="nonzero"/></g><g clip-path="url(#af55e4d38a)"><path fill="#5800ff" d="M 44.8125 11.644531 L 35.480469 2.351562 C 32.976562 -0.148438 26.300781 2.75 28.585938 5.023438 L 35.296875 11.710938 C 35.960938 12.375 36.347656 13.171875 36.453125 14.105469 C 38.765625 16.808594 40.6875 19.433594 41.085938 21.070312 L 44.820312 17.351562 C 45.007812 17.167969 45.175781 16.960938 45.324219 16.742188 C 45.472656 16.519531 45.597656 16.289062 45.699219 16.042969 C 45.800781 15.796875 45.878906 15.546875 45.929688 15.285156 C 45.980469 15.027344 46.007812 14.761719 46.007812 14.496094 C 46.007812 14.234375 45.980469 13.96875 45.929688 13.710938 C 45.875 13.449219 45.796875 13.199219 45.695312 12.953125 C 45.59375 12.707031 45.46875 12.476562 45.320312 12.253906 C 45.171875 12.035156 45.003906 11.832031 44.8125 11.644531 Z M 44.8125 11.644531 " fill-opacity="1" fill-rule="nonzero"/></g><g fill="#231f20" fill-opacity="1"><g transform="translate(48.465579, 19.354843)"><g><path d="M 6.574219 0 L 6.574219 -10.753906 L 10.402344 -10.753906 L 10.402344 -12.847656 L 0.40625 -12.847656 L 0.40625 -10.753906 L 4.234375 -10.753906 L 4.234375 0 Z M 6.574219 0 "/></g></g></g><g fill="#231f20" fill-opacity="1"><g transform="translate(59.272848, 19.354843)"><g><path d="M 5.226562 0.292969 C 6.800781 0.292969 8.085938 -0.425781 8.722656 -1.632812 L 8.722656 0 L 10.894531 0 L 10.894531 -9.710938 L 8.722656 -9.710938 L 8.722656 -8.070312 C 8.097656 -9.277344 6.800781 -10.003906 5.214844 -10.003906 C 2.617188 -10.003906 0.652344 -7.691406 0.652344 -4.855469 C 0.652344 -2.003906 2.597656 0.292969 5.226562 0.292969 Z M 5.773438 -1.824219 C 4.234375 -1.824219 2.917969 -2.964844 2.917969 -4.855469 C 2.917969 -6.679688 4.203125 -7.890625 5.773438 -7.890625 C 7.359375 -7.890625 8.625 -6.546875 8.625 -4.855469 C 8.625 -3.136719 7.371094 -1.824219 5.773438 -1.824219 Z M 5.773438 -1.824219 "/></g></g></g><g fill="#231f20" fill-opacity="1"><g transform="translate(71.5066, 19.354843)"><g><path d="M 10.25 0 L 6.820312 -5.867188 L 9.835938 -9.710938 L 7.046875 -9.710938 L 3.628906 -5.160156 L 3.628906 -13.304688 L 1.339844 -13.304688 L 1.339844 0 L 3.628906 0 L 3.628906 -2.703125 L 5.160156 -4.375 L 7.679688 0 Z M 10.25 0 "/></g></g></g><g fill="#231f20" fill-opacity="1"><g transform="translate(81.860417, 19.354843)"><g><path d="M 2.464844 -11.222656 C 3.390625 -11.222656 3.910156 -11.800781 3.910156 -12.539062 C 3.910156 -13.246094 3.390625 -13.839844 2.476562 -13.839844 C 1.578125 -13.839844 1.058594 -13.246094 1.058594 -12.539062 C 1.058594 -11.808594 1.585938 -11.222656 2.464844 -11.222656 Z M 3.628906 0 L 3.628906 -9.710938 L 1.339844 -9.710938 L 1.339844 0 Z M 3.628906 0 "/></g></g></g><g fill="#231f20" fill-opacity="1"><g transform="translate(86.820046, 19.354843)"><g><path d="M 4.835938 0.292969 C 7.179688 0.292969 8.917969 -0.746094 8.917969 -2.882812 C 8.917969 -4.941406 7.351562 -5.527344 5.339844 -5.828125 C 3.664062 -6.09375 3.308594 -6.332031 3.308594 -7.058594 C 3.308594 -7.644531 3.742188 -8.136719 4.722656 -8.136719 C 5.78125 -8.136719 6.347656 -7.625 6.394531 -6.90625 L 8.636719 -6.886719 C 8.636719 -8.738281 7.058594 -10.003906 4.714844 -10.003906 C 2.34375 -10.003906 1.058594 -8.796875 1.058594 -7.011719 C 1.058594 -5 2.664062 -4.25 4.535156 -4.007812 C 5.859375 -3.808594 6.585938 -3.570312 6.585938 -2.75 C 6.585938 -2.011719 6.039062 -1.519531 4.855469 -1.519531 C 3.550781 -1.519531 2.890625 -2.191406 2.851562 -3.082031 L 0.660156 -3.089844 C 0.660156 -1.378906 1.984375 0.292969 4.835938 0.292969 Z M 4.835938 0.292969 "/></g></g></g><g fill="#231f20" fill-opacity="1"><g transform="translate(96.285853, 19.354843)"><g><path d="M 7.40625 0.273438 C 10.148438 0.273438 13.011719 -1.304688 13.605469 -4.742188 L 11.195312 -4.742188 C 10.695312 -2.769531 9.164062 -1.890625 7.339844 -1.890625 C 4.914062 -1.890625 2.976562 -3.648438 2.976562 -6.433594 C 2.976562 -9.175781 4.914062 -10.996094 7.339844 -10.996094 C 9.175781 -10.996094 10.695312 -10.109375 11.207031 -8.136719 L 13.605469 -8.136719 C 13.011719 -11.566406 10.117188 -13.152344 7.40625 -13.152344 C 3.617188 -13.152344 0.625 -10.175781 0.625 -6.445312 C 0.625 -2.710938 3.617188 0.273438 7.40625 0.273438 Z M 7.40625 0.273438 "/></g></g></g><g fill="#231f20" fill-opacity="1"><g transform="translate(110.522351, 19.354843)"><g><path d="M 5.226562 0.292969 C 6.800781 0.292969 8.085938 -0.425781 8.722656 -1.632812 L 8.722656 0 L 10.894531 0 L 10.894531 -9.710938 L 8.722656 -9.710938 L 8.722656 -8.070312 C 8.097656 -9.277344 6.800781 -10.003906 5.214844 -10.003906 C 2.617188 -10.003906 0.652344 -7.691406 0.652344 -4.855469 C 0.652344 -2.003906 2.597656 0.292969 5.226562 0.292969 Z M 5.773438 -1.824219 C 4.234375 -1.824219 2.917969 -2.964844 2.917969 -4.855469 C 2.917969 -6.679688 4.203125 -7.890625 5.773438 -7.890625 C 7.359375 -7.890625 8.625 -6.546875 8.625 -4.855469 C 8.625 -3.136719 7.371094 -1.824219 5.773438 -1.824219 Z M 5.773438 -1.824219 "/></g></g></g><g fill="#231f20" fill-opacity="1"><g transform="translate(122.756104, 19.354843)"><g><path d="M 3.628906 0 L 3.628906 -4.515625 C 3.628906 -6.585938 4.695312 -7.746094 6.265625 -7.746094 L 7.179688 -7.746094 L 7.179688 -9.710938 L 6.140625 -9.710938 C 4.875 -9.710938 3.988281 -9.023438 3.535156 -7.957031 L 3.535156 -9.710938 L 1.339844 -9.710938 L 1.339844 0 Z M 3.628906 0 "/></g></g></g><g fill="#231f20" fill-opacity="1"><g transform="translate(130.228612, 19.354843)"><g><path d="M 10.582031 -5.027344 C 10.582031 -7.699219 8.617188 -10.003906 5.6875 -10.003906 C 2.769531 -10.003906 0.652344 -7.691406 0.652344 -4.855469 C 0.652344 -2.023438 2.769531 0.292969 5.6875 0.292969 C 8.105469 0.292969 9.835938 -1.304688 10.328125 -3.050781 L 7.832031 -3.050781 C 7.5 -2.230469 6.792969 -1.746094 5.640625 -1.746094 C 4.300781 -1.746094 3.183594 -2.664062 2.949219 -4.25 L 10.535156 -4.25 C 10.574219 -4.609375 10.582031 -4.78125 10.582031 -5.027344 Z M 3.042969 -6.019531 C 3.429688 -7.386719 4.527344 -8.011719 5.679688 -8.011719 C 7.019531 -8.011719 8.152344 -7.105469 8.25 -6.019531 Z M 3.042969 -6.019531 "/></g></g></g></svg>